# xmcd CD database file
#
# Track frame offsets:
#	150
#	13428
#	27616
#	44021
#	62483
#	83633
#	102206
#	110907
#	129679
#	144045
#	160786
#	181348
#	194170
#	208570
#
# Disc length: 2967 seconds
#
# Revision: 0
# Processed by: cddbd v1.5.2PL0 Copyright (c) Steve Scherf et al.
# Submitted via: CDex 1.70beta2
#
DISCID=cc0b950e
DTITLE=Wagons - Draw Blood
DYEAR=1900
DGENRE=Country
TTITLE0=Eagle On The Hill
TTITLE1=Man Sold
TTITLE2=Alone With Me
TTITLE3=This Is What Death Looks Like
TTITLE4=Last Wish
TTITLE5=I'm A Liar
TTITLE6=You And Me
TTITLE7=Jerry
TTITLE8=I Pray
TTITLE9=Lost My Mind
TTITLE10=All The Time
TTITLE11=Eagle On The Hill (Live)
TTITLE12=I Pray (Live)
TTITLE13=The Bizness
EXTD=
EXTT0=
EXTT1=
EXTT2=
EXTT3=
EXTT4=
EXTT5=
EXTT6=
EXTT7=
EXTT8=
EXTT9=
EXTT10=
EXTT11=
EXTT12=
EXTT13=
PLAYORDER=
